<svg xmlns="http://www.w3.org/2000/svg" style="display: none;">
    <symbol id="map" viewBox="0 0 24 24">
        <polygon points="1,5 1,23 8,19 15,23 22,19 22,1 15,5 8,1"/>
        <line x1="8" y1="1" x2="8" y2="19"/>
        <line x1="15" y1="5" x2="15" y2="23"/>
    </symbol>
    <symbol id="discord" viewBox="0 0 24 24">
        <path d="M19.952,5.672c-1.904-1.531-4.916-1.79-5.044-1.801c-0.201-0.017-0.392,0.097-0.474,0.281 c-0.006,0.012-0.072,0.163-0.145,0.398c1.259,0.212,2.806,0.64,4.206,1.509c0.224,0.139,0.293,0.434,0.154,0.659 c-0.09,0.146-0.247,0.226-0.407,0.226c-0.086,0-0.173-0.023-0.252-0.072C15.584,5.38,12.578,5.305,12,5.305S8.415,5.38,6.011,6.872 c-0.225,0.14-0.519,0.07-0.659-0.154c-0.14-0.225-0.07-0.519,0.154-0.659c1.4-0.868,2.946-1.297,4.206-1.509 c-0.074-0.236-0.14-0.386-0.145-0.398C9.484,3.968,9.294,3.852,9.092,3.872c-0.127,0.01-3.139,0.269-5.069,1.822 C3.015,6.625,1,12.073,1,16.783c0,0.083,0.022,0.165,0.063,0.237c1.391,2.443,5.185,3.083,6.05,3.111c0.005,0,0.01,0,0.015,0 c0.153,0,0.297-0.073,0.387-0.197l0.875-1.202c-2.359-0.61-3.564-1.645-3.634-1.706c-0.198-0.175-0.217-0.477-0.042-0.675 c0.175-0.198,0.476-0.217,0.674-0.043c0.029,0.026,2.248,1.909,6.612,1.909c4.372,0,6.591-1.891,6.613-1.91 c0.198-0.172,0.5-0.154,0.674,0.045c0.174,0.198,0.155,0.499-0.042,0.673c-0.07,0.062-1.275,1.096-3.634,1.706l0.875,1.202 c0.09,0.124,0.234,0.197,0.387,0.197c0.005,0,0.01,0,0.015,0c0.865-0.027,4.659-0.667,6.05-3.111 C22.978,16.947,23,16.866,23,16.783C23,12.073,20.985,6.625,19.952,5.672z M8.891,14.87c-0.924,0-1.674-0.857-1.674-1.913 s0.749-1.913,1.674-1.913s1.674,0.857,1.674,1.913S9.816,14.87,8.891,14.87z M15.109,14.87c-0.924,0-1.674-0.857-1.674-1.913 s0.749-1.913,1.674-1.913c0.924,0,1.674,0.857,1.674,1.913S16.033,14.87,15.109,14.87z"></path>
    </symbol>
    <symbol id="github" viewBox="0 0 24 24">
        <path d="M12 2C6.477 2 2 6.477 2 12c0 4.42 2.865 8.17 6.839 9.49.5.092.682-.217.682-.482 0-.237-.008-.866-.013-1.7-2.782.603-3.369-1.34-3.369-1.34-.454-1.156-1.11-1.462-1.11-1.462-.908-.62.069-.608.069-.608 1.003.07 1.531 1.03 1.531 1.03.892 1.529 2.341 1.087 2.91.832.092-.647.35-1.088.636-1.338-2.22-.253-4.555-1.11-4.555-4.943 0-1.091.39-1.984 1.029-2.683-.103-.253-.446-1.27.098-2.647 0 0 .84-.269 2.75 1.025A9.578 9.578 0 0112 6.836c.85.004 1.705.114 2.504.336 1.909-1.294 2.747-1.025 2.747-1.025.546 1.377.203 2.394.1 2.647.64.699 1.028 1.592 1.028 2.683 0 3.842-2.339 4.687-4.566 4.935.359.309.678.919.678 1.852 0 1.336-.012 2.415-.012 2.743 0 .267.18.578.688.48C19.138 20.167 22 16.418 22 12c0-5.523-4.477-10-10-10z"/>
    </symbol>
    <symbol id="twitter" viewBox="0 0 24 24">
        <path d="M18.244 2.25h3.308l-7.227 8.26 8.502 11.24H16.17l-5.214-6.817L4.99 21.75H1.68l7.73-8.835L1.254 2.25H8.08l4.713 6.231zm-1.161 17.52h1.833L7.084 4.126H5.117z"/>
    </symbol>
    <symbol id="steam" viewBox="0 0 24 24">
        <path d="M11.979 0C5.678 0 .511 4.86.022 11.037l6.432 2.658c.545-.371 1.203-.59 1.912-.59.063 0 .125.004.188.006l2.861-4.142V8.91c0-2.495 2.028-4.524 4.524-4.524 2.494 0 4.524 2.031 4.524 4.527s-2.03 4.525-4.524 4.525h-.105l-4.076 2.911c0 .052.004.105.004.159 0 1.875-1.515 3.396-3.39 3.396-1.635 0-3.016-1.173-3.331-2.727L.436 15.27C1.862 20.307 6.486 24 11.979 24c6.627 0 11.999-5.373 11.999-12S18.605 0 11.979 0zM7.54 18.21l-1.473-.61c.262.543.714.999 1.314 1.25 1.297.539 2.793-.076 3.332-1.375.263-.63.264-1.319.005-1.949s-.75-1.121-1.377-1.383c-.624-.26-1.29-.249-1.878-.03l1.523.63c.956.4 1.409 1.5 1.009 2.455-.397.957-1.497 1.41-2.454 1.012zm11.415-9.303c0-1.662-1.353-3.015-3.015-3.015-1.665 0-3.015 1.353-3.015 3.015 0 1.665 1.35 3.015 3.015 3.015 1.663 0 3.015-1.35 3.015-3.015zm-5.273-.005c0-1.252 1.013-2.266 2.265-2.266 1.249 0 2.266 1.014 2.266 2.266 0 1.251-1.017 2.265-2.266 2.265-1.253 0-2.265-1.014-2.265-2.265z"/>
    </symbol>
    <symbol id="lastfm" viewBox="0 0 112.195 112.195" width="24" height="24">
        <path d="M112.195,56.097c0,30.983-25.114,56.099-56.097,56.099 C25.115,112.195,0,87.08,0,56.097C0,25.117,25.115,0,56.099,0C87.081,0,112.195,25.117,112.195,56.097z"/>
        <path style="fill:#EFECE6;" d="M80.487,52.141c-6.203-1.849-8.412-2.874-8.412-4.922c0-3.416,4.937-4.702,5.497-4.79 c3.139-0.465,7.072,1.173,8.34,4.99l8.44-2.553c-2.65-8.385-10.487-12.099-18.099-10.975 c-7.788,1.146-12.782,6.786-12.782,13.327c0,8.8,8.244,11.332,14.43,13.181c6.509,1.944,8.401,2.637,8.401,5.023 c0,2.016-1.196,3.895-4.374,4.735c-6.32,1.664-14.586-0.672-16.887-4.523c-1.351-2.261-2.733-5.203-4.001-8.53 c-3.766-9.866-8.926-23.371-23.764-23.371c-7.731,0-21.851,3.743-21.851,24.868c0,8.744,7.481,19.613,21.578,19.613 c11.829,0,13.888-4.32,14.358-5.085l-3.861-7.555c-0.098,0.138-3.692,4.936-10.497,4.936c-11.107,0-12.735-11.776-12.735-11.909 c0-10.967,4.687-16.238,13.008-16.238c8.094,0,11.382,7.04,15.48,17.759c1.397,3.683,2.922,6.966,4.65,9.865 c3.657,6.116,11.55,8.091,19.473,8.091c2.418,0,5.2,0.137,7.351-0.432c7.093-1.878,10.905-6.178,10.905-12.224 C95.137,56.218,86.852,54.044,80.487,52.141z"/>
    </symbol>
    <symbol id="linkedin" viewBox="0 0 24 24">
        <path d="M20.447 20.452h-3.554v-5.569c0-1.328-.027-3.037-1.852-3.037-1.853 0-2.136 1.445-2.136 2.939v5.667H9.351V9h3.414v1.561h.046c.477-.9 1.637-1.85 3.37-1.85 3.601 0 4.267 2.37 4.267 5.455v6.286zM5.337 7.433a2.062 2.062 0 01-2.063-2.065 2.064 2.064 0 112.063 2.065zm1.782 13.019H3.555V9h3.564v11.452zM22.225 0H1.771C.792 0 0 .774 0 1.729v20.542C0 23.227.792 24 1.771 24h20.451C23.2 24 24 23.227 24 22.271V1.729C24 .774 23.2 0 22.222 0h.003z"/>
    </symbol>
    <symbol id="copy" viewBox="0 0 256 256" width="24" height="24">
        <path d="M200,32H163.74a47.92,47.92,0,0,0-71.48,0H56A16,16,0,0,0,40,48V216a16,16,0,0,0,16,16H200a16,16,0,0,0,16-16V48A16,16,0,0,0,200,32Zm-72,0a32,32,0,0,1,32,32H96A32,32,0,0,1,128,32Zm72,184H56V48H82.75A47.93,47.93,0,0,0,80,64v8a8,8,0,0,0,8,8h80a8,8,0,0,0,8-8V64a47.93,47.93,0,0,0-2.75-16H200Z"/>
    </symbol>
    <symbol id="check" viewBox="0 0 24 24">
        <path d="M20 6L9 17l-5-5"/>
    </symbol>
</svg>